<svg version="1.1" xmlns="http://www.w3.org/2000/svg" xmlns:xlink="http://www.w3.org/1999/xlink" width="800px"
     height="800px" viewBox="0 0 32 32" xml:space="preserve">
    <path fill="currentColor" d="M12,19h8v10c0,1.657-1.343,3-3,3h-0.5v-9.5c0-0.276-0.224-0.5-0.5-0.5s-0.5,0.224-0.5,0.5V32H15
	    c-1.657,0-3-1.343-3-3V19z M18,7h-4c-2.761,0-5,2.239-5,5v6c0,1.304,0.837,2.403,2,2.816V19v-1v-5.5c0-0.276,0.224-0.5,0.5-0.5
	    s0.5,0.224,0.5,0.5V18h8v-5.5c0-0.276,0.224-0.5,0.5-0.5s0.5,0.224,0.5,0.5v8.316c1.163-0.413,2-1.512,2-2.816v-6
	    C23,9.239,20.761,7,18,7z M16,6c1.657,0,3-1.343,3-3s-1.343-3-3-3s-3,1.343-3,3S14.343,6,16,6z"/>
</svg>
