<svg height="800px" width="800px" version="1.1" id="_x32_" xmlns="http://www.w3.org/2000/svg"
     xmlns:xlink="http://www.w3.org/1999/xlink"
     viewBox="0 0 512 512" xml:space="preserve">
<style type="text/css">
	.st0{fill:currentColor;}
</style>
    <path class="st0" d="M392.293,0H119.708c-24.42,0.008-44.194,19.783-44.202,44.202v423.597
		c0.008,24.419,19.783,44.193,44.202,44.202h272.585c24.418-0.008,44.193-19.783,44.202-44.202V44.202
		C436.486,19.783,416.711,0.008,392.293,0z M392.293,490.311H119.708c-12.426-0.024-22.488-10.087-22.513-22.512V44.202
		c0.025-12.425,10.087-22.488,22.513-22.512h272.585c12.425,0.024,22.488,10.087,22.512,22.512v423.597
		C414.781,480.224,404.718,490.286,392.293,490.311z"/>
    <path class="st0" d="M314.098,190.006c-21.575-17.15-51.722-5.133-58.102,18.846c-6.363-23.979-36.51-35.996-58.086-18.846
		c-20.662,16.442-18.993,49.181,1.239,75.416c18.699,24.248,47.917,47.616,55.78,63.838l1.067,0.798l1.084-0.798
		c7.863-16.223,37.08-39.591,55.78-63.838C333.091,239.187,334.753,206.449,314.098,190.006z"/>
</svg>
