<svg height="512px" style="enable-background:new 0 0 512 512;" viewBox="0 0 512 512" width="512px" xml:space="preserve" xmlns="http://www.w3.org/2000/svg">
    <g>
        <path d="M488.908,214.763L274.375,38.499c-10.945-8.792-26.246-8.765-37.363,0.117L22.624,214.763 c-3.459,2.842-5.457,7.089-5.457,11.575V450.63c0,16.51,13.393,29.905,29.827,29.905h417.549  c16.467,0,29.826-13.396,29.826-29.905V226.338C494.369,221.852,492.371,217.604,488.908,214.763L488.908,214.763z       M488.908,214.763" style="fill:#1872D9;"/>
        <path d="M255.766,283.577L175.03,202.62l42.171-42.286l38.564,38.672L413.631,40.711l42.174,42.288     L255.766,283.577z M255.766,283.577" style="fill:#DCE6EA;"/>
        <path d="M17.167,226.338l417.548,254.197H46.994c-16.468,0-29.827-13.396-29.827-29.905V226.338z      M17.167,226.338" style="fill:#2299F8;"/>
        <path d="M494.369,226.338L76.815,480.535h387.728c16.467,0,29.826-13.396,29.826-29.905V226.338z      M494.369,226.338" style="fill:#65B8FA;"/>
    </g>
</svg>
