<svg viewBox="0 0 64 64" xmlns="http://www.w3.org/2000/svg">
    <g>
        <rect height="62" rx="6" style="fill:#05aaec" width="62" x="1" y="1"/>
        <path d="M57,1H7A6,6,0,0,0,1,7V17A22,22,0,0,0,23,39H41A22,22,0,0,0,63,17V7A6,6,0,0,0,57,1Z" style="fill:#26c2ff"/>
        <path d="M57,1H7A6,6,0,0,0,1,7v4A6,6,0,0,1,7,5H57a6,6,0,0,1,6,6V7A6,6,0,0,0,57,1Z" style="fill:#6bd6ff"/>
        <path d="M57,59H7a6,6,0,0,1-6-6v4a6,6,0,0,0,6,6H57a6,6,0,0,0,6-6V53A6,6,0,0,1,57,59Z" style="fill:#0592de"/>
        <path d="M52.881,38.925A22,22,0,0,0,25.075,11.119,9.991,9.991,0,1,0,11.119,25.075,22,22,0,0,0,38.925,52.881,9.991,9.991,0,1,0,52.881,38.925Z" style="fill:#fffdfe"/>
        <path d="M35,30a7,7,0,0,1,7,7h0a7,7,0,0,1-7,7H28a6,6,0,0,1-6-6h0a1,1,0,0,1,1-1h2a1,1,0,0,1,1,1h0a2,2,0,0,0,2,2h7a3,3,0,0,0,3-3h0a3,3,0,0,0-3-3H29a7,7,0,0,1-7-7h0a7,7,0,0,1,7-7h7a6,6,0,0,1,6,6h0a1,1,0,0,1-1,1H39a1,1,0,0,1-1-1h0a2,2,0,0,0-2-2H29a3,3,0,0,0-3,3h0a3,3,0,0,0,3,3Z" style="fill:#01acf1"/>
        <path d="M7.125,18.5A10.069,10.069,0,0,0,7,20a9.946,9.946,0,0,0,3.473,7.545,22.106,22.106,0,0,1,.646-2.47A9.989,9.989,0,0,1,7.125,18.5Z" style="fill:#0592de"/>
        <path d="M47,57a9.975,9.975,0,0,1-8.075-4.119A21.993,21.993,0,0,1,10.06,33.539c-.033.484-.06.969-.06,1.461A22,22,0,0,0,38.925,55.881,9.969,9.969,0,0,0,56.875,48.5,9.992,9.992,0,0,1,47,57Z" style="fill:#0592de"/>
        <path d="M35,34H29a6.994,6.994,0,0,1-6.92-6A6.948,6.948,0,0,0,29,36h6a2.99,2.99,0,0,1,2.816,2A2.962,2.962,0,0,0,38,37,3,3,0,0,0,35,34Z" style="fill:#ececec"/>
        <path d="M35,44H28a6,6,0,0,1-5.815-4.547A.979.979,0,0,0,22,40a6,6,0,0,0,6,6h7a6.948,6.948,0,0,0,6.92-8A6.994,6.994,0,0,1,35,44Z" style="fill:#ececec"/>
        <path d="M29,26h7a2,2,0,0,1,2,2,1,1,0,0,0,1,1h2a1,1,0,0,0,1-1,5.951,5.951,0,0,0-.185-1.453A.983.983,0,0,1,41,27H39a1,1,0,0,1-1-1,2,2,0,0,0-2-2H29a3,3,0,0,0-3,3,2.962,2.962,0,0,0,.184,1A2.99,2.99,0,0,1,29,26Z" style="fill:#ececec"/>
    </g>
</svg>
